<?xml version="1.0" encoding="utf-8"?>
<!-- Generator: Adobe Illustrator 16.0.4, SVG Export Plug-In . SVG Version: 6.00 Build 0)  -->
<!DOCTYPE svg PUBLIC "-//W3C//DTD SVG 1.1//EN" "http://www.w3.org/Graphics/SVG/1.1/DTD/svg11.dtd">
<svg version="1.1" id="Layer_1" xmlns="http://www.w3.org/2000/svg" xmlns:xlink="http://www.w3.org/1999/xlink" x="0px" y="0px"
	 width="500px" height="500px" viewBox="0 0 500 500" enable-background="new 0 0 500 500" xml:space="preserve">
<g>
	<text transform="matrix(1 0 0 1 98.3374 357.4648)" font-family="'CenturyGothic'" font-size="46.1601" letter-spacing="9">O</text>
	<text transform="matrix(1 0 0 1 148.6128 357.4648)" font-family="'CenturyGothic'" font-size="46.1601" letter-spacing="10">P</text>
	<text transform="matrix(1 0 0 1 187.9321 357.4648)" font-family="'CenturyGothic'" font-size="46.1601" letter-spacing="13">T</text>
	<text transform="matrix(1 0 0 1 221.4336 357.4648)" font-family="'CenturyGothic'" font-size="46.1601" letter-spacing="12">I</text>
	<text transform="matrix(1 0 0 1 244.7939 357.4648)" font-family="'CenturyGothic'" font-size="46.1601" letter-spacing="10">CIAN</text>
	<text transform="matrix(1 0 0 1 165.2041 405.1934)" font-family="'CenturyGothic'" font-size="30.2616" letter-spacing="7">AWARDS</text>
	<text transform="matrix(1 0 0 1 93.6606 468.1875)" font-family="'CenturyGothic'" font-size="59.6171" letter-spacing="14">WINNER</text>
	<g>
		<g>
			<path d="M317.064,141.752c1.801,2.614,3.288,4.844,4.854,7.046c3.081,4.354,5.697,8.993,7.735,13.88
				c2.142,5.152,4.139,10.394,5.153,15.961c0.232,1.248,0.104,2.753,0.696,3.691c0.853,1.324,0.164,2.614,0.578,3.804
				c1.068,3.089,0.533,6.29,0.62,9.43c0.032,1.266,0.431,2.47,0.104,3.829c-0.354,1.48-0.087,3.097-0.087,4.663
				c0,1.445,0.225,2.936-0.035,4.345c-0.808,4.234-1.245,8.519-2.365,12.716c-0.774,2.909-1.937,5.714-2.426,8.76
				c-0.413,2.555-1.963,4.965-3.227,7.321c-2.479,4.597-4.723,9.293-7.917,13.484c-1.556,2.048-2.916,4.25-4.774,6.005
				c0,0.931,0,1.815,0,2.607c6.488,9.981,12.749,19.996,18.954,29.895c-0.281,0.36-0.334,0.463-0.421,0.523
				c-0.077,0.062-0.173,0.137-0.267,0.137c-9.93,0-19.858,0-29.873,0c-2.41-1.676-3.16-4.636-4.905-6.876
				c-1.721-2.218-3.063-4.73-4.595-7.113c-3.631,1.85-7.279,3.768-11.006,5.54c-2.417,1.154-4.924,2.118-7.425,3.081
				c-1.824,0.706-3.683,1.386-5.577,1.894c-1.806,0.473-3.656,0.696-5.455,1.368c-1.668,0.602-3.576,0.645-5.368,0.739
				c-1.617,0.095-3.046,0.99-4.768,0.758c-1.463-0.207-3.026-0.319-4.395,0.609c-3.469-0.318-7.022,0.689-10.447-0.627
				c-0.577-0.231-1.333-0.06-2.004-0.033c-2.685,0.066-5.283-0.312-7.848-1.258c-1.136-0.43-2.582,0.172-3.7-0.748
				c-3.235,0.07-6.162-1.275-9.138-2.212c-5.421-1.703-10.574-4.121-15.583-6.813c-1.281-0.696-2.503-1.532-3.982-2.436
				c-1.325,1.937-2.694,3.967-4.088,5.954c-1.875,2.675-3.019,5.869-5.679,8.115c-10.023,0-20.151,0-30.39,0
				c-0.111-1.714,1.179-2.643,1.919-3.829c2.684-4.363,5.179-8.845,8.087-13.051c3.21-4.675,5.8-9.752,9.312-14.243
				c0.154-0.207,0.008-0.653,0.008-1.224c-4.293-4.239-7.056-9.79-10.662-14.755c-0.534-2.348-2.219-4.165-2.822-6.548
				c-0.552-2.158-2.03-4.007-2.702-6.237c-1.189-3.88-2.486-7.701-3.303-11.703c-0.517-2.494-0.835-5.016-1.377-7.468
				c-0.759-3.399-0.438-6.754-0.534-10.127c-0.102-3.348-0.386-6.746,0.07-10.033c0.619-4.568,1.205-9.147,2.426-13.673
				c1.498-5.542,3.208-10.928,5.662-16.09c2.143-4.509,4.629-8.819,7.21-13.087c0.671-1.094,1.532-2.118,2.332-3.003
				c3.217-3.562,5.653-7.804,9.396-10.876c3.484-2.873,6.754-5.999,10.489-8.587c3.889-2.694,7.787-5.352,11.995-7.453
				c5.446-2.718,11.203-4.808,17.002-6.59c2.573-0.781,5.335-1.384,8.096-1.53c1.369-0.068,2.729-0.629,4.071-0.577
				c1.394,0.034,2.46-0.475,3.734-1.162c-1.574-0.774-2.986-1.833-4.56-2.178c-2.486-0.55-4.534-1.996-6.9-2.789
				c-2.237-0.747-4.372-1.807-6.61-2.615c-2.22-0.826-4.164-2.212-6.538-2.839c-2.247-0.603-4.26-2.056-6.455-2.96
				c-2.004-0.825-3.992-1.678-6.074-2.322c-2.048-0.638-3.771-2.065-5.921-2.685c-2.271-0.654-4.226-2.117-5.662-4.043
				c-0.593-0.791-1.161-1.739-1.015-2.935c0.085-0.679-0.224-1.401-0.431-2.608c0.292-1.265,0.756-3.079,1.118-4.93
				c0.293-1.455,0.551-2.934,0.671-4.415c0.103-1.549-0.009-3.105,0.026-4.68c0.06-2.693-0.767-5.241-1.393-7.795
				c-0.507-2.083-2.126-3.503-3.821-4.646c-1.094-0.732-2.445-1.085-3.675-1.601c-0.62-0.481-1.308-1.016-1.824-1.42
				c0.275-1.075,0.42-1.9,0.671-2.684c0.258-0.784,0.654-1.523,0.912-2.307c0.242-0.799,0.389-1.633,0.621-2.615
				c1.444-0.173,2.873-0.731,4.009-1.979c1.283-1.394,2.685-2.677,4.018-4.035c1.144-1.179,2.35-2.074,4.122-2.205
				c1.394-0.095,2.755-1.411,4.141,0.052c2.676,0.181,4.87,1.721,7.288,2.6c5.164,1.841,9.939,4.604,15.212,6.143
				c1.266,0.371,2.393,1.239,3.375,1.781c2.202,0.302,4.216,0.75,6.236,0.81c1.869,0.059,3.744-0.309,6.309-0.543
				c-3.442,2.16-6.283,3.95-9.517,5.989c-1.626,0.413-3.408-0.56-5.292-1.351c-2.951-1.239-5.98-2.254-8.984-3.374
				c-1.058-0.396-2.108-0.861-3.192-1.169c-0.56-0.156-1.207-0.026-2.134-0.026c6.109,2.907,12.081,5.223,17.726,7.89
				c-1.369,1.437-2.582,2.71-3.805,3.993c-2.184-0.585-4.301-1.755-7.194-2.065c1.782,2.297,4.596,1.832,6.229,3.691
				c-1.264,2.675-2.994,5.18-3.578,8.312c-0.604,3.208,0.051,6.297,0.138,9.463c0.059-0.456,0.137-0.918,0.189-1.393
				c0.482-5.094,1.567-9.904,4.991-14.008c3.244-3.863,7.072-6.962,11.668-9.705c2.787-1.661,5.747-2.926,8.647-4.234
				c5.636-2.54,11.203-5.275,16.898-7.693c1.98-0.842,3.864-1.953,5.998-2.503c1.153-0.293,2.17-1.145,3.32-1.651
				c4.354-1.912,8.579-4.087,12.891-6.085c2.703-1.256,5.421-2.563,8.235-3.536c2.762-0.937,4.999-2.977,7.968-3.45
				c1.058-0.163,2.004-1.058,3.029-1.54c2.898-1.368,5.772-2.771,8.715-4.01c2.943-1.239,5.869-2.556,8.777-3.872
				c2.426-1.101,4.914-2.178,7.27-3.475c0.526-0.285,1.162-0.371,2.246-0.698c-1.472,2.865-3.45,4.862-4.404,7.477
				c-0.982,2.607-2.239,5.102-3.83,8.655c-2.383,3.038-6.926,4.551-11.365,6.178c-1.844,0.671-3.579,1.601-5.507,2.065
				c-1.816,0.438-3.502,1.222-5.215,1.972c-2.356,1.032-4.802,1.875-7.245,2.693c-3.804,1.299-7.607,2.642-11.322,4.182
				c-3.342,1.385-6.73,2.624-10.12,3.863c-3.983,1.445-8.053,2.649-11.971,4.25c-4.593,1.868-9.283,3.46-13.938,5.146
				c-3.605,1.299-7.133,2.813-10.316,5c-0.516,0.36-0.912,0.904-1.204,1.703c0.43-0.146,0.945-0.206,1.273-0.464
				c2.125-1.773,4.716-2.649,7.245-3.519c3.425-1.188,6.754-2.591,10.17-3.761c3.992-1.369,7.942-2.917,11.943-4.302
				c2.444-0.853,4.81-1.868,7.263-2.668c2.366-0.756,4.683-1.659,7.005-2.451c3.338-1.136,6.609-2.393,9.902-3.614
				c3.297-1.206,6.602-2.383,9.907-3.589c2.22-0.801,4.437-1.653,6.685-2.427c2.934-1.015,5.929-1.851,8.664-3.346
				c0.137-0.07,0.396,0.068,0.776,0.146c-2.395,3.098-4.512,6.316-6.782,9.405c-1.532,2.082-4.028,3.623-6.71,4.509
				c-6.48,2.134-12.891,4.475-19.432,6.419c-3.674,1.092-7.201,2.608-10.892,3.622c-3.598,0.999-7.142,2.203-10.635,3.459
				c-3.579,1.292-7.235,2.417-10.815,3.769c-2.591,0.973-5.361,1.593-7.857,2.849c-1.867,0.963-3.555,2.289-5.937,3.845
				c1.127,0,1.651,0.165,1.875-0.025c2.237-2.039,5.042-2.881,7.787-3.836c4.311-1.471,8.666-2.78,13-4.19
				c5.095-1.669,10.311-3.046,15.249-5.207c2.271,0.517,3.889-1.401,6.108-1.548c2.083-0.121,4.094-1.308,6.144-1.997
				c1.971-0.655,3.959-1.247,5.92-1.901c2.547-0.844,5.077-1.738,7.64-2.573c0.371-0.12,0.81-0.009,1.119-0.009
				c-1.377,2.022-2.632,3.958-3.993,5.834c-1.307,1.791-3.209,2.832-5.232,3.511c-7.543,2.521-15.229,4.715-22.681,7.487
				c-3.389,1.264-7.071,1.729-10.187,3.69c-1.962-0.093-3.615,1.042-5.352,1.653c-4.887,1.712-10.093,2.899-14.119,7.047
				c0.542,0.086,1.024,0.31,1.179,0.154c2.805-2.564,6.479-3.253,9.843-4.553c3.581-1.368,7.313-2.271,10.955-3.484
				c5.1-1.678,10.116-3.658,15.271-5.111c2.806-0.791,5.653-1.36,8.227-2.813c0.327-0.188,0.859-0.026,1.342-0.026
				c0.258,0.766-0.415,1.033-0.739,1.23c-2.659,1.626-4.614,4.036-6.79,6.187c-2.521,2.521-5.567,4.097-8.854,5.327
				c-2.124,0.783-4.2,1.711-6.263,2.667c-3.838,1.763-7.829,3.183-11.763,4.724c-5.498,2.144-10.917,4.5-15.014,9.043
				c-2.031,2.254-2.891,5.042-3.907,7.76c-0.318,0.845,0.155,2.153,1.111,4.166c0.456-1.859-0.13-3.659,0.843-5.223
				c1.575-2.546,3.571-4.723,5.998-6.376c3.863-2.624,8.003-4.784,12.717-6.118c3.184,2.203,6.471,4.483,9.776,6.745
				c4.61,3.141,9.396,6.041,13.803,9.439c3.458,2.668,7.314,4.715,10.635,7.564c1.987,1.705,4.388,2.9,6.522,4.439
				c3.492,2.548,7.244,4.724,10.651,7.409c2.157,1.686,4.579,3.037,6.778,4.646c3.495,2.574,7.16,4.861,10.689,7.392
				c2.891,2.073,5.789,4.174,8.861,6.023c2.53,1.515,4.957,3.193,7.323,4.948c4.053,3.029,8.189,5.938,12.529,8.543
				c1.308,0.783,2.365,1.953,3.774,3.158c-0.618,0-0.996,0.111-1.222-0.026c-4.319-2.702-9.172-4.278-13.801-6.264
				c-4.167-1.782-8.346-3.581-12.625-5.154c-1.574-0.578-3.241-1.325-4.749-2.262C318.753,141.855,318.065,141.925,317.064,141.752z
				 M300.975,235.49c1.858-3.269,3.615-5.893,4.887-8.732c1.531-3.392,2.787-6.875,3.804-10.498
				c1.017-3.556,1.739-7.169,2.152-10.773c0.526-4.407,0.137-8.914,0.121-13.381c0-0.413-0.121-0.834-0.217-1.248
				c-0.37-1.634-0.739-3.26-1.108-4.896c-0.577-2.444-1.108-4.887-1.748-7.313c-0.465-1.807-1.574-3.398-2.195-5.112
				c-1.16-3.26-2.804-6.204-4.592-9.146c-1.809-3.012-3.685-5.989-6.022-8.526c-2.617-2.789-5.328-5.508-8.366-7.942
				c-3.82-3.063-7.881-5.636-12.147-7.942c-0.896-0.481-2.271-0.37-2.883-1.023c-1.438-1.55-3.452-1.446-5.138-2.246
				c-1.661-0.792-3.615-0.948-5.37-1.575c-1.564-0.566-3.388-0.172-4.688-0.783c-1.472-0.689-2.778-0.284-4.139-0.525
				c-1.359-0.25-2.727-0.671-4.079-0.629c-3.148,0.069-6.263-0.111-9.457,0.475c-2.796,0.525-5.653,0.783-8.466,1.462
				c-4.655,1.103-9.138,2.624-13.476,4.664c-3.158,1.489-5.997,3.381-8.854,5.336c-3.132,2.125-6.022,4.475-8.767,7.038
				c-1.334,1.256-2.264,2.935-3.605,4.174c-3.759,3.443-6.04,7.916-8.519,12.227c-1.376,2.409-2.479,5.016-3.34,7.632
				c-0.877,2.686-2.356,5.222-2.082,8.192c-1.541,3.122-1.326,6.608-1.884,9.911c-0.49,2.926-0.353,6.032-0.042,9.01
				c0.301,2.839,0.352,5.782,1.342,8.474c0.55,1.507,0.483,3.082,1.033,4.579c0.964,2.625,1.893,5.248,2.84,7.873
				c1.376,3.889,3.717,7.168,5.679,10.913c0.688-0.836,1.342-1.428,1.747-2.17c2.521-4.585,5.738-8.733,8.33-13.285
				c2.778-4.905,6.048-9.55,9.103-14.317c2.151-3.347,4.31-6.687,6.454-10.042c2.495-3.882,4.981-7.771,7.46-11.667
				c2.255-3.521,4.492-7.057,6.728-10.576c2.031-3.192,4.141-6.333,6.059-9.568c2.744-4.655,5.858-9.052,8.699-14.025
				c0.594,0.654,1.102,1.059,1.411,1.574c0.81,1.334,1.454,2.762,2.291,4.07c2.331,3.623,4.79,7.158,7.089,10.79
				c2.306,3.622,4.456,7.314,6.72,10.945c1.334,2.133,2.806,4.183,4.155,6.316c2.247,3.528,4.396,7.116,6.652,10.644
				c1.463,2.306,3.132,4.483,4.579,6.797c2.623,4.268,4.954,8.725,7.761,12.837c3.615,5.301,6.763,10.861,10.325,16.168
				C298.384,231.404,299.494,233.184,300.975,235.49z M281.113,254.324c-1.066-1.928-1.839-3.646-2.89-5.179
				c-2.494-3.64-4.896-7.314-7.159-11.091c-1.987-3.322-4.173-6.532-6.308-9.766c-2.571-3.95-5.195-7.892-7.614-11.926
				c-2.506-4.182-5.594-8.02-7.574-12.564c-0.646-1.461-2.1-2.573-3.424-4.121c-3.357,5.214-6.523,10.135-9.912,15.428
				c-0.008,0.043,0.025,0.716-0.293,1.033c-1.015,0.999-1.729,2.125-2.374,3.38c-0.817,1.575-1.773,3.089-2.822,4.518
				c-2.865,3.889-5.292,8.07-7.795,12.166c-2.839,4.638-5.989,9.077-8.759,13.76c-0.878,1.522-2.04,2.907-2.04,5
				c1.566,0.799,3.09,1.71,4.707,2.391c1.901,0.801,3.553,2.049,5.688,2.461c2.004,0.384,3.743,1.636,5.86,2.028
				c2.048,0.38,4.002,1.301,6.16,1.224c1.068,1.291,2.487,0.507,3.734,0.645c1.377,0.163,2.589,0.791,4.079,0.758
				c5.748-0.104,11.496,0,17.184-1.325c1.728-0.412,3.433-0.81,5.143-1.334c4.862-1.471,9.517-3.424,13.93-5.946
				C279.455,255.392,280.254,254.868,281.113,254.324z"/>
		</g>
	</g>
</g>
</svg>
