<?xml version="1.0" encoding="utf-8"?>
<!-- Generator: Adobe Illustrator 16.0.4, SVG Export Plug-In . SVG Version: 6.00 Build 0)  -->
<!DOCTYPE svg PUBLIC "-//W3C//DTD SVG 1.1//EN" "http://www.w3.org/Graphics/SVG/1.1/DTD/svg11.dtd">
<svg version="1.1" id="Layer_1" xmlns="http://www.w3.org/2000/svg" xmlns:xlink="http://www.w3.org/1999/xlink" x="0px" y="0px"
	 width="500px" height="500px" viewBox="0 0 500 500" enable-background="new 0 0 500 500" xml:space="preserve">
<path d="M115.437,243.094v23.823H88.335v-23.823H30.852V218.75l49.712-74.057h34.699v74.923h16.919v23.478H115.437z M88.509,174.387
	H87.99l-29.004,45.229h29.522V174.387z"/>
<path d="M171.023,251.73c0,4.823-1.701,8.865-5.095,12.082c-3.394,3.219-7.452,4.835-12.168,4.835c-2.412,0-4.692-0.44-6.82-1.3
	c-2.125-0.859-4-2.038-5.61-3.535c-1.612-1.498-2.878-3.258-3.796-5.262c-0.922-2.017-1.384-4.236-1.384-6.66
	c0-2.296,0.462-4.482,1.384-6.556c0.917-2.071,2.183-3.888,3.796-5.436c1.609-1.555,3.484-2.787,5.61-3.714
	c2.128-0.918,4.409-1.384,6.82-1.384c4.716,0,8.774,1.619,12.168,4.839C169.324,242.864,171.023,246.893,171.023,251.73"/>
<path d="M255.608,185.088c0,7.247-1.26,13.844-3.796,19.767c-2.527,5.931-5.803,11.94-9.833,18.037l-29.491,44.022h-35.016
	l30.41-42.12l0.341-0.519c-1.262,0.464-2.671,0.802-4.22,1.037c-1.556,0.229-3.016,0.342-4.391,0.342
	c-5.401,0-10.515-0.951-15.344-2.845c-4.825-1.902-9.074-4.601-12.745-8.114c-3.68-3.512-6.611-7.715-8.794-12.6
	c-2.183-4.89-3.272-10.333-3.272-16.317c0-6.905,1.263-13.119,3.791-18.635c2.524-5.534,5.977-10.194,10.337-13.988
	c4.362-3.803,9.481-6.707,15.333-8.723c5.863-2.014,12.069-3.018,18.619-3.018c6.66,0,12.92,1.003,18.779,3.018
	c5.863,2.015,10.94,4.92,15.247,8.723c4.311,3.792,7.728,8.4,10.256,13.803C254.349,172.375,255.608,178.422,255.608,185.088
	 M226.785,184.743c0-5.293-1.709-9.864-5.123-13.723c-3.406-3.856-8.06-5.781-13.954-5.781c-5.902,0-10.606,1.812-14.131,5.437
	c-3.528,3.622-5.29,8.372-5.29,14.239c0,5.527,1.731,10.097,5.196,13.728c3.475,3.628,8.094,5.435,13.88,5.435
	c5.776,0,10.459-1.786,14.046-5.348C224.987,195.166,226.785,190.505,226.785,184.743"/>
<polygon points="305.844,275.895 286.34,269.508 339.68,135.37 359.189,142.103 "/>
<path d="M476.916,226.516c0,7.494-1.324,13.96-3.971,19.422c-2.646,5.476-6.183,9.986-10.616,13.557
	c-4.427,3.564-9.466,6.242-15.104,8.028c-5.639,1.774-11.451,2.676-17.435,2.676c-5.522,0-10.789-0.726-15.793-2.165
	c-5.011-1.435-9.554-3.475-13.641-6.127c-4.086-2.646-7.592-5.895-10.528-9.751c-2.933-3.855-5.094-8.204-6.473-13.038l26.413-8.108
	c1.263,4.26,3.654,7.766,7.16,10.531c3.511,2.759,7.686,4.145,12.521,4.145c4.944,0,9.233-1.498,12.859-4.492
	c3.625-2.992,5.436-7.419,5.436-13.293c0-3.562-0.747-6.557-2.238-8.977c-1.502-2.415-3.432-4.336-5.786-5.783
	c-2.363-1.434-5.033-2.442-8.028-3.016c-2.995-0.582-5.983-0.86-8.975-0.86c-4.378,0-9.356,0.488-14.934,1.458
	c-5.588,0.985-10.562,2.278-14.935,3.885l2.939-69.914h74.913v24.857h-49.198l-1.031,19.339c1.837-0.464,3.881-0.778,6.125-0.952
	c2.243-0.175,4.289-0.264,6.129-0.264c6.097,0,11.853,0.812,17.262,2.423c5.413,1.607,10.104,4.055,14.067,7.338
	c3.976,3.277,7.109,7.33,9.411,12.162C475.767,214.434,476.916,220.079,476.916,226.516"/>
<text transform="matrix(1 0 0 1 27.9585 441.5186)" font-family="'AvenirNext-Medium'" font-size="42.1599">Based on 700+ </text>
<text transform="matrix(1 0 0 1 332.7266 441.5186)" font-family="'AvenirNext-Medium'" font-size="42.1599">R</text>
<text transform="matrix(1 0 0 1 358.1494 441.5186)" font-family="'AvenirNext-Medium'" font-size="42.1599">eviews</text>
<text transform="matrix(1 0 0 1 27.623 103.4219)" font-family="'CenturyGothic-Bold'" font-size="46.3582" letter-spacing="3">Rated Excellent</text>
<polygon stroke="#000000" stroke-width="0.5" stroke-linecap="round" stroke-linejoin="round" stroke-miterlimit="10" points="
	60.788,307.222 69.643,332.695 96.604,333.241 75.116,349.533 82.925,375.343 60.788,359.942 38.653,375.343 46.466,349.533 
	24.976,333.241 51.939,332.695 "/>
<polygon stroke="#000000" stroke-width="0.5" stroke-linecap="round" stroke-linejoin="round" stroke-miterlimit="10" points="
	158.55,307.222 167.404,332.695 194.363,333.241 172.875,349.533 180.684,375.343 158.55,359.942 136.415,375.343 144.225,349.533 
	122.735,333.241 149.698,332.695 "/>
<polygon stroke="#000000" stroke-width="0.5" stroke-linecap="round" stroke-linejoin="round" stroke-miterlimit="10" points="
	256.312,307.222 265.166,332.695 292.12,333.241 270.637,349.533 278.444,375.343 256.312,359.942 234.178,375.343 241.984,349.533 
	220.498,333.241 247.457,332.695 "/>
<polygon stroke="#000000" stroke-width="0.5" stroke-linecap="round" stroke-linejoin="round" stroke-miterlimit="10" points="
	354.069,307.222 362.924,332.695 389.883,333.241 368.396,349.533 376.206,375.343 354.069,359.942 331.938,375.343 
	339.747,349.533 318.257,333.241 345.218,332.695 "/>
<g>
	<g>
		<path fill="#FFFFFF" d="M452.402,359.121c-0.172-0.119-0.371-0.179-0.571-0.179s-0.399,0.06-0.571,0.179l-19.773,13.758
			l6.977-23.056c0.121-0.4-0.02-0.834-0.353-1.087l-19.193-14.554l24.078-0.487c0.418-0.009,0.787-0.276,0.924-0.672l7.912-22.757
			l7.911,22.757c0.137,0.396,0.506,0.663,0.924,0.672l24.083,0.487l-19.194,14.554c-0.333,0.253-0.474,0.686-0.353,1.086
			l6.971,23.057L452.402,359.121z"/>
		<path d="M451.831,313.312l6.967,20.039c0.274,0.791,1.012,1.326,1.849,1.344l21.205,0.429l-16.9,12.815
			c-0.667,0.506-0.948,1.372-0.706,2.173l6.139,20.304l-17.41-12.115c-0.344-0.239-0.743-0.358-1.143-0.358
			s-0.799,0.119-1.143,0.358l-17.411,12.114l6.143-20.303c0.242-0.801-0.039-1.667-0.706-2.173l-16.9-12.815l21.201-0.429
			c0.837-0.018,1.574-0.553,1.849-1.343L451.831,313.312 M451.831,307.222l-8.856,25.474l-26.954,0.546l21.485,16.292l-7.81,25.81
			l22.135-15.4l22.132,15.4l-7.804-25.81l21.486-16.292l-26.959-0.546L451.831,307.222L451.831,307.222z"/>
	</g>
	<polygon stroke="#000000" stroke-width="0.5" stroke-linecap="round" stroke-linejoin="round" stroke-miterlimit="10" points="
		451.831,307.222 460.687,332.695 470.133,332.91 470.196,346.465 466.159,349.533 473.963,375.343 451.831,359.942 
		429.696,375.343 437.506,349.533 416.021,333.241 442.975,332.695 	"/>
</g>
</svg>
