<?xml version="1.0" encoding="utf-8"?>
<!-- Generator: Adobe Illustrator 16.0.4, SVG Export Plug-In . SVG Version: 6.00 Build 0)  -->
<!DOCTYPE svg PUBLIC "-//W3C//DTD SVG 1.1//EN" "http://www.w3.org/Graphics/SVG/1.1/DTD/svg11.dtd">
<svg version="1.1" id="Layer_1" xmlns="http://www.w3.org/2000/svg" xmlns:xlink="http://www.w3.org/1999/xlink" x="0px" y="0px"
	 width="500px" height="500px" viewBox="0 0 500 500" enable-background="new 0 0 500 500" xml:space="preserve">
<g>
	<path d="M299.798,123.816c2.118,0,3.994-0.774,5.428-2.221c1.455-1.446,2.217-3.324,2.217-5.428c0-2.116-0.741-3.943-2.217-5.428
		c-2.872-2.889-7.812-2.969-10.85,0.009c-1.463,1.476-2.205,3.303-2.205,5.419c0,2.102,0.762,3.98,2.218,5.428
		C295.872,123.071,297.688,123.816,299.798,123.816z"/>
	<path d="M380.132,199.688l0.732-0.276c0.333-0.111,0.677-0.228,0.933-0.335c0.247-0.088,0.496-0.199,0.725-0.3l-0.572-2.14
		l0.749,1.269l0.009,0.583c0.12,0,0.22-0.008,0.333-0.026l0.039,0.068c0.03-0.012,0.21-0.098,0.372-0.173
		c0.068-0.021,0.131-0.051,0.19-0.076c0.854-0.402,1.691-0.863,2.407-1.29c0.283-0.148,0.35-0.203,0.304-0.186
		c0.056-0.026,0.452-0.288,0.513-0.322c0.521-0.325,1.045-0.684,1.608-1.083c0.027-0.022,0.12-0.084,0.215-0.153
		c0.06-0.033,0.114-0.067,0.173-0.105c1.807-1.26,3.353-2.53,4.717-3.883c3.173-3.139,5.702-6.867,7.529-11.08
		c1.749-4.074,2.63-8.367,2.682-13.138l-0.009-68.667c0-1.689-0.618-3.2-1.798-4.388c-2.339-2.331-6.266-2.397-8.76,0.018
		c-1.159,1.181-1.77,2.69-1.77,4.37v42.715c-0.427-0.419-0.871-0.812-1.328-1.193c-1.949-1.637-4.136-3.038-6.513-4.163
		c-2.349-1.092-4.812-1.9-7.333-2.416c-6.696-1.345-13.112-0.879-18.065,0.668c-2.699,0.837-5.398,2.378-6.77,3.474
		c-0.267-0.026-1.027-0.458-1.532-0.749c-0.561-0.317-1.151-0.655-1.787-0.943c-2.691-1.219-5.42-1.816-8.85-1.938l-0.944-0.017
		c-3.855,0-7.689,0.791-9.763,2.03c-0.839,0.504-1.542,1.021-2.219,1.574c-0.295-0.754-0.759-1.443-1.378-2.073
		c-2.362-2.297-6.296-2.322-8.732,0.03c-1.177,1.201-1.777,2.673-1.777,4.381l-0.017,54.97c0,1.701,0.617,3.219,1.786,4.396
		c2.366,2.363,6.353,2.385,8.807-0.013c1.168-1.18,1.776-2.694,1.776-4.383V163.01l0.009-0.737c0.021-3.1,0.052-8.879,1.486-12.119
		c1.226-2.775,3.603-3.963,5.477-4.898c1.321-0.662,2.411-1.097,5.581-1.097c2.643,0,4.699,1.659,6.951,3.477
		c2.749,2.233,6.78,1.701,8.359,0.784c1.234-0.699,3.147-1.692,4.942-2.505c5.252-2.343,12.666-2.437,18.429,0.009
		c2.813,1.215,5.317,2.876,7.438,4.932c2.062,2.038,3.734,4.487,4.961,7.267c1.202,2.775,1.806,5.762,1.806,8.879
		c0,3.134-0.616,6.125-1.812,8.887c-1.22,2.789-2.882,5.233-4.976,7.272c-2.081,2.056-4.582,3.718-7.424,4.932
		c-5.631,2.433-13.101,2.369-18.448,0.013c-2.706-1.196-5.059-2.839-6.979-4.885c-0.482-0.506-0.939-1.053-1.35-1.57
		c-1.256-1.667-2.271-3.552-3.015-5.612c-1.017-2.793-1.541-5.826-1.541-9.108c0-3.059,0.496-6.007,1.464-8.765
		c0.151-0.347,0.241-0.74,0.241-1.117c0.046-0.317,0.063-0.619,0.063-0.918c0-0.419-0.045-0.808-0.123-1.236
		c-0.571-2.838-3.088-4.894-5.997-4.894c-2.082,0-4.007,1.05-5.166,2.856c-0.329,0.444-0.947,1.266-1.489,3.139
		c-0.507,1.776-1.354,5.567-1.354,11.007c0,3.697,0.479,7.238,1.438,10.529c0.321,1.125,0.693,2.212,1.129,3.265
		c1.692,4.188,4.091,7.863,7.103,10.935c3.024,3.084,6.727,5.511,10.974,7.204c0.96,0.389,1.949,0.715,2.909,0.999
		c3.292,1.032,6.845,1.556,10.562,1.556l0.343-0.008c2.445,0,4.967-0.262,7.504-0.774
		C377.585,200.448,378.82,200.113,380.132,199.688z M382.217,196.519L382.217,196.519L382.217,196.519L382.217,196.519z"/>
	<path d="M229.662,191.266c1.363,1.35,2.901,2.618,4.924,4.026c0.608,0.435,1.218,0.85,1.798,1.205
		c0.288,0.195,0.592,0.373,1.172,0.707l1.447,0.762c0.046,0.026,0.558,0.291,0.596,0.312c2.28,1.08,4.747,1.896,7.779,2.505
		l0.283-2.173l0,0l0.372,2.271l1.028,0.168c0.625,0.111,1.234,0.191,1.919,0.267c0.475,0.042,0.999,0.075,1.388,0.084l1.218,0.046
		l0.416-2.169l0,0l0.395,2.208l0.299,0.008c0.022,0,0.052,0,0.067,0c4.786,0,9.245-0.846,13.208-2.479
		c0.087-0.03,0.659-0.25,0.744-0.284c0.228-0.097,0.435-0.207,0.76-0.393c0.216-0.089,0.428-0.203,0.673-0.337
		c0.554-0.254,1.088-0.52,1.638-0.816c0.465-0.258,0.922-0.53,1.684-0.989l0.847-0.526c1.814-1.213,3.392-2.49,4.821-3.921
		c3.079-3.084,5.489-6.769,7.187-10.947c1.679-4.172,2.538-8.804,2.538-13.774c0-1.667-0.037-3.137-0.173-4.454
		c-0.021-0.288-0.056-0.554-0.124-1.015c0-0.025-0.027-0.242-0.054-0.415c0.008-0.101,0.018-0.199,0.018-0.304
		c0-0.403-0.115-0.792-0.313-1.125c-0.037-0.124-0.078-0.221-0.114-0.302c-0.098-0.262-0.19-0.528-0.284-0.728
		c-0.942-2.364-3.178-3.896-5.707-3.896c-3.376,0-6.124,2.758-6.124,6.143c0,0.262,0,0.596,0.097,1.269
		c0.113,0.947,0.436,3.461,0.436,4.804c0,3.207-0.513,6.24-1.531,9.011c-1.017,2.814-2.45,5.169-4.383,7.221
		c-1.891,2.019-4.242,3.658-6.989,4.873c-5.4,2.369-12.762,2.428-18.426-0.013c-2.834-1.205-5.335-2.872-7.437-4.932
		c-2.11-2.068-3.773-4.514-4.961-7.279c-0.905-2.048-1.477-4.251-1.705-6.549c-0.078-0.758-0.115-1.536-0.115-2.31
		c0-3.152,0.618-6.138,1.82-8.883c1.196-2.767,2.868-5.22,4.961-7.276c2.102-2.06,4.603-3.719,7.424-4.937
		c5.737-2.438,13.022-2.374,18.438-0.013c1.457,0.647,3.508,1.979,4.688,2.745l0.733,0.474c2.208,1.46,3.318,2.153,4.03,2.42
		c0.654,0.24,2.019,0.748,3.681,0.748c1.844,0,3.625-0.601,5.296-1.789c3.451-2.449,7.986-4.128,12.299-4.599l0.017,49.31
		c0,1.688,0.608,3.207,1.767,4.379c2.34,2.361,6.448,2.339,8.749,0.021c1.19-1.172,1.808-2.691,1.808-4.4v-55.067
		c0-3.384-2.823-6.037-6.428-6.037l-1.559,0.008c-2.942,0-10.342,0.299-15.575,3.096c-1.028,0.554-1.899,1.215-2.723,1.84
		c-1.394,1.049-2.097,1.747-3.4,0.964c-0.887-0.524-1.676-1.032-2.673-1.679c-0.229-0.166-0.467-0.313-0.628-0.411
		c-0.569-0.359-1.103-0.681-1.445-0.841c-1.302-0.732-2.635-1.422-4.068-2.004c-6.266-2.535-13.638-3.329-21.246-1.773
		c-2.53,0.516-4.99,1.332-7.338,2.42c-2.338,1.107-4.527,2.504-6.501,4.149c-0.467,0.382-0.906,0.779-1.333,1.194V98.375
		c0-1.722-0.601-3.194-1.79-4.378c-2.319-2.34-6.32-2.39-8.774,0.004c-1.181,1.193-1.768,2.665-1.768,4.374v68.287
		c0,4.86,0.879,9.285,2.699,13.52C223.947,184.404,226.477,188.134,229.662,191.266z M278.21,161.574L278.21,161.574L278.21,161.574
		L278.21,161.574z M253.101,199.238L253.101,199.238L253.101,199.238L253.101,199.238z"/>
	<path d="M184.746,257.131c0-1.774-0.647-3.38-1.904-4.656c-1.244-1.248-2.851-1.908-4.642-1.908h-16.755l-0.017-9.208
		c0-0.826,0.059-1.629,0.124-2.4c0.229-2.352,0.808-4.619,1.721-6.722c1.272-2.875,2.994-5.401,5.118-7.495
		c2.195-2.148,4.704-3.807,7.674-5.081c2.83-1.227,5.998-1.848,9.421-1.857l1.236,0.007c1.836,0,3.473-0.665,4.746-1.955
		c1.235-1.294,1.891-2.902,1.891-4.641c0-1.798-0.665-3.414-1.913-4.662c-1.243-1.269-2.88-1.943-4.725-1.943h-1.562v0.022
		c-0.122-0.013-0.236-0.017-0.351-0.017c-0.063,0-0.589,0.021-0.655,0.03l0.19,2.423l-0.799-2.397l-0.816,0.021
		c-0.52,0.021-1.036,0.055-1.594,0.111c-0.66,0.071-1.315,0.161-1.81,0.245c-0.406,0.046-0.816,0.118-1.062,0.173
		c-0.047,0.004-0.608,0.097-0.647,0.105c-0.008,0-0.619,0.102-0.619,0.102c-2.655,0.524-5.219,1.367-7.682,2.521l-0.905,0.486
		c-0.419,0.202-0.807,0.418-1.57,0.846l-1.302,0.813c-0.475,0.317-0.969,0.643-1.578,1.104c-1.786,1.197-3.461,2.555-4.961,4.048
		c-3.291,3.245-5.937,7.128-7.848,11.544c-1.891,4.416-2.814,9.022-2.814,14.073v69.088c0,1.81,0.666,3.426,1.912,4.652
		c1.236,1.256,2.852,1.916,4.658,1.916c1.777,0,3.384-0.655,4.662-1.916c1.236-1.245,1.878-2.855,1.878-4.652v-46.258h16.755
		c1.769,0,3.369-0.65,4.671-1.921C184.099,260.528,184.746,258.923,184.746,257.131z"/>
	<path d="M239.705,259.294c-2.941-2.965-6.516-5.296-10.632-6.942c-8.075-3.248-18.578-3.299-26.769-0.004
		c-4.098,1.632-7.682,3.969-10.631,6.929c-2.919,2.91-5.246,6.434-6.92,10.479c-1.646,4.031-2.483,8.439-2.483,13.101
		c0,4.644,0.837,9.039,2.483,13.087c1.675,4.041,4.001,7.564,6.92,10.465c2.94,2.962,6.523,5.289,10.631,6.93
		c4.083,1.642,8.565,2.47,13.321,2.47c4.831,0,9.357-0.828,13.436-2.47c4.136-1.653,7.717-3.984,10.635-6.916
		c2.927-2.931,5.253-6.459,6.903-10.479c1.649-4.022,2.5-8.425,2.5-13.087c0-4.68-0.85-9.09-2.5-13.097
		C244.949,265.724,242.632,262.2,239.705,259.294z M235.271,282.855c0,2.905-0.465,5.707-1.366,8.288
		c-0.952,2.588-2.246,4.762-3.969,6.657c-1.645,1.841-3.697,3.303-6.095,4.35c-4.916,2.137-11.578,2.137-16.363,0
		c-2.326-1.024-4.374-2.487-6.049-4.345c-1.708-1.912-3.028-4.146-3.933-6.646c-0.939-2.622-1.417-5.418-1.417-8.303
		c0-2.901,0.479-5.697,1.417-8.315c0.905-2.517,2.225-4.747,3.933-6.639c1.705-1.893,3.694-3.349,6.097-4.449
		c2.348-1.088,5.071-1.642,8.101-1.642c3.024,0,5.774,0.559,8.189,1.655c2.423,1.096,4.476,2.584,6.143,4.449
		c1.701,1.87,2.995,4.035,3.935,6.612C234.806,277.128,235.271,279.937,235.271,282.855z"/>
	<path d="M297.75,257.653c-0.307-1.715-1.235-3.155-2.562-4.079c-0.137-0.11-1.364-1.087-2.934-1.828
		c-2.812-1.32-6.025-2.043-9.838-2.208c-0.038,0-0.655-0.008-0.687-0.008c-4.152,0-7.986,1.414-10.013,2.626
		c-0.808,0.482-1.492,0.982-2.147,1.506c-0.312-0.728-0.778-1.387-1.379-1.988c-2.508-2.462-6.692-2.497-9.28,0.033
		c-1.236,1.265-1.861,2.817-1.861,4.633l-0.038,53.778c0,1.81,0.655,3.427,1.929,4.716c1.295,1.227,2.892,1.874,4.633,1.874
		c1.786,0,3.394-0.659,4.612-1.883c1.294-1.235,1.979-2.868,1.979-4.707v-28.414l0.009-0.777c0.009-3.199,0.046-9.159,1.532-12.483
		c1.424-3.271,3.802-4.861,5.068-5.503c1.34-0.664,2.452-1.101,5.71-1.101c2.343,0,2.91,0.411,3.779,1.016l1.369,1.003
		c1.435,1.041,2.982,1.463,4.827,1.192c1.742-0.266,3.159-1.133,4.202-2.562C297.716,261.041,298.085,259.357,297.75,257.653z"/>
	<path d="M348.224,259.201c-2.547-2.877-5.754-5.165-9.51-6.814c-7.197-3.181-17.479-3.478-25.54-0.018
		c-3.842,1.646-7.234,3.98-10.078,6.938c-2.851,2.921-5.118,6.441-6.742,10.469c-1.585,3.993-2.393,8.397-2.393,13.08
		c0,4.692,0.836,9.094,2.479,13.071c1.626,3.998,3.908,7.517,6.771,10.46c2.873,2.963,6.34,5.298,10.317,6.943
		c3.957,1.647,8.301,2.478,12.904,2.478c5.127,0,9.99-1.036,14.448-3.07c4.441-1.982,8.562-5.337,12.496-10.244l0.923-1.276
		c1.027-1.523,1.396-3.156,1.114-4.836c-0.277-1.734-1.2-3.193-2.646-4.212c-1.436-1.02-2.891-1.456-4.898-1.079
		c-1.701,0.337-3.098,1.248-4.162,2.72l-0.725,1.036c-1.441,2.314-3.633,4.418-6.501,6.249c-2.817,1.797-6.105,2.665-10.049,2.665
		c-2.666,0-5.06-0.482-7.36-1.485c-2.285-0.989-4.281-2.336-5.933-4.015c-1.684-1.666-3.007-3.659-3.946-5.936
		c-0.646-1.522-1.096-3.13-1.341-4.801h45.535c1.275,0,2.329-0.979,2.427-2.247c0.063-0.816,0.1-1.595,0.1-2.317v-1.849
		c0-4.299-0.624-8.216-1.921-11.988C352.674,265.359,350.732,262.022,348.224,259.201z M325.677,261.811
		c5.373,0,9.357,1.501,12.161,4.594c2.4,2.652,3.855,5.79,4.415,9.547h-34.127c0.274-1.239,0.696-2.453,1.266-3.677
		c0.93-1.972,2.226-3.786,3.859-5.393c1.538-1.536,3.416-2.78,5.592-3.715C320.906,262.268,323.208,261.811,325.677,261.811z"/>
	<path d="M393.294,276.003c-4.498-0.939-7.768-2.064-9.718-3.335c-1.541-1.001-2.233-2.3-2.233-4.217
		c0-1.111,0.237-2.055,0.695-2.843c0.503-0.827,1.17-1.513,2.018-2.062c0.93-0.59,2.013-1.023,3.192-1.296
		c4.223-0.933,8.169-0.405,11.303,1.515c1.743,1.053,3.132,2.347,4.116,3.828l0.973,1.464c0.96,1.186,2.174,1.943,3.52,2.218
		c1.661,0.42,3.401,0.146,4.907-0.801c1.518-0.927,2.517-2.348,2.868-4.078c0.382-1.738,0.06-3.447-0.961-5.013l-0.908-1.304
		c-0.593-0.832-1.22-1.628-1.913-2.352c-1.874-2.013-4.145-3.65-6.734-4.869c-6.7-3.232-13.984-3.76-21.185-1.92
		c-2.729,0.74-5.211,1.883-7.436,3.408c-2.241,1.607-4.062,3.638-5.382,6.046c-1.348,2.491-2.005,5.372-2.005,8.798
		c0,3.173,0.647,5.885,1.932,8.063c1.216,2.06,2.816,3.838,4.8,5.297c1.934,1.358,3.909,2.355,6.059,3.046
		c1.996,0.647,3.908,1.175,5.697,1.604c5.284,1.266,9.383,2.639,12.157,4.074c2.149,1.121,3.113,2.58,3.113,4.729
		c0,1.477-0.256,2.661-0.8,3.559c-0.562,0.972-1.286,1.749-2.194,2.352c-0.999,0.65-2.179,1.125-3.495,1.395
		c-4.208,0.847-9.069,0.541-13.046-1.828c-2.432-1.45-4.246-3.197-5.541-5.324l-0.526-0.869c-0.892-1.563-2.279-2.656-4.069-3.163
		c-1.7-0.427-3.461-0.188-4.961,0.689c-1.562,0.854-2.622,2.259-3.109,4.1c-0.412,1.736-0.152,3.468,0.76,5.024l0.905,1.522
		c2.877,4.231,6.653,7.407,11.229,9.43c4.411,1.938,9.041,2.917,13.756,2.917c2.876,0,5.719-0.329,8.436-0.985
		c2.898-0.684,5.531-1.855,7.833-3.466c2.331-1.62,4.271-3.77,5.767-6.386c1.48-2.617,2.232-5.84,2.232-9.59
		c0-5.3-1.941-9.586-5.773-12.728C405.957,279.684,400.637,277.505,393.294,276.003z"/>
	<path d="M467.556,304.196c-0.617-1.627-1.81-2.867-3.473-3.604c-1.614-0.672-3.278-0.688-5.013-0.008l-1.35,0.555
		c-0.017,0.003-0.823,0.287-0.845,0.291c-2.234,0.595-4.154,0.525-5.838,0.077c-0.687-0.19-1.248-0.517-1.722-0.985
		c-0.513-0.507-0.9-1.243-1.196-2.264c-0.345-1.175-0.522-2.741-0.522-4.652v-31.049l13.978-0.019c1.641,0,3.07-0.575,4.277-1.754
		c1.143-1.155,1.752-2.616,1.752-4.214s-0.602-3.058-1.798-4.272c-1.181-1.138-2.605-1.714-4.231-1.714l-13.978,0.014l-0.012-13.444
		c0-1.814-0.665-3.444-1.967-4.755c-2.591-2.491-6.723-2.533-9.405,0.043c-1.256,1.264-1.911,2.894-1.919,4.961v13.194l-9.746,0.009
		c-1.656,0-3.13,0.608-4.245,1.729c-1.157,1.13-1.774,2.602-1.774,4.255c0,1.634,0.607,3.096,1.76,4.255
		c1.143,1.121,2.614,1.718,4.275,1.718l9.73-0.01v34.573c0,3.57,0.551,6.546,1.653,8.854c1.121,2.332,2.585,4.214,4.374,5.599
		c1.761,1.371,3.697,2.31,5.77,2.809c2.048,0.473,3.851,0.701,5.533,0.701c1.95,0,3.871-0.169,5.687-0.49
		c2.064-0.367,4.995-1.42,4.995-1.42c0.654-0.218,1.519-0.58,1.519-0.58c1.674-0.641,2.901-1.798,3.633-3.438
		C468.199,307.534,468.22,305.791,467.556,304.196z"/>
	<path d="M134.339,148.92c8.189-8.147,10.499-17.796,6.674-28.041c-3.832-10.275-11.925-16.067-23.447-16.835
		c-2.94-13.942-11.41-23.229-25.169-27.602c-1.311-0.416-2.669-0.69-4.031-0.957l-2.082-0.372h-7.039l-1.032,0.292
		c-14.978,2.432-24.933,11.059-29.603,25.643c-0.312,0.981-0.524,1.997-0.722,3.007c-10.886,0.661-18.761,5.995-22.832,15.504
		c-4.572,10.697-2.453,20.803,6.117,29.353c-9.425,13.055-8.655,30.583,2.14,42.486c5.372,5.897,11.996,9.501,19.716,10.715
		c8.153,1.256,15.825-0.288,22.906-4.611v8.9c0.022,33.05,0.059,95.179-0.037,102.864c-0.064,3.773,1.502,6.416,4.678,7.858
		l3.88,0.216l0.466-0.203c3.197-1.399,4.775-4.103,4.708-7.998c-0.085-7.771-0.047-70.503-0.038-103.783v-7.843
		c12.648,7.631,29.247,6.134,40.059-3.583c5.982-5.36,9.625-12.031,10.812-19.826C141.869,164.936,139.805,156.471,134.339,148.92z
		 M89.699,156.337c1.976-2.019,3.972-4.02,5.982-6.02c1.937-1.943,3.87-3.876,5.791-5.825c1.854-1.879,2.616-4.412,2.022-6.785
		c-0.559-2.255-2.281-4.041-4.583-4.768c-2.568-0.841-5.059-0.194-7.047,1.772l-2.272,2.293v-23.667
		c-0.018-3.469-2.471-6.329-5.867-6.798c-3.375-0.389-6.561,1.612-7.5,4.861c-0.258,0.883-0.279,1.747-0.279,2.56l-0.009,39.75
		l-3.392-3.422c-1.097-1.108-2.179-2.216-3.32-3.292c-2.678-2.51-6.988-2.51-9.573-0.009c-1.324,1.294-2.064,3.008-2.074,4.84
		c-0.021,1.84,0.711,3.596,2.044,4.938c3.155,3.167,6.324,6.314,9.488,9.462l6.811,6.557c0.037,2.28,0.055,4.569,0,6.867
		c-0.022,0.021-0.052,0.042-0.068,0.071c-0.266,0.254-0.549,0.482-0.837,0.714c-0.55,0.445-1.091,0.897-1.557,1.405
		c-5.545,6.04-12.199,8.181-19.772,6.366c-7.881-1.883-12.826-6.811-14.688-14.658c-1.92-8.024,0.331-14.75,6.709-19.995
		c2.217-1.832,3.299-4.442,2.902-6.98c-0.397-2.517-2.203-4.641-4.831-5.682c-5.694-2.229-8.651-8.917-6.607-14.903
		c1.655-4.839,6.277-8.227,11.231-8.227c1.036,0,2.074,0.148,3.088,0.44c5.081,1.469,9.632-2.102,9.632-7.449
		c0-10.901,6.988-19.378,17.816-21.599c1.269-0.262,2.572-0.395,3.884-0.395c10.278,0,19.831,8.038,21.299,17.949
		c0.199,1.219,0.389,2.644,0.301,4.009c-0.102,2.195,0.592,4.196,1.962,5.644c1.836,1.92,4.679,2.622,7.568,1.857
		c4.2-1.151,8.778,0.157,11.781,3.32c2.263,2.391,3.422,5.516,3.239,8.807c-0.246,5.123-2.791,8.671-7.774,10.872
		c-2.074,0.926-3.566,2.475-4.195,4.362c-0.58,1.708-0.389,3.566,0.516,5.215c0.559,1.023,1.357,1.802,2.167,2.522
		c6.354,5.44,8.68,12.14,6.933,19.923c-1.798,7.991-6.752,13.029-14.737,14.955c-7.627,1.827-14.271-0.312-19.882-6.442
		c-0.516-0.55-1.133-1.028-1.76-1.498c-0.207-0.157-0.427-0.318-0.618-0.478C89.594,171.882,89.584,163.997,89.699,156.337z"/>
</g>
<text transform="matrix(1 0 0 1 59.9814 399.8057)" font-family="'AvenirNext-Medium'" font-size="53.1744">Carbon Negative</text>
</svg>
