<?xml version="1.0" encoding="utf-8"?>
<!-- Generator: Adobe Illustrator 16.0.4, SVG Export Plug-In . SVG Version: 6.00 Build 0)  -->
<!DOCTYPE svg PUBLIC "-//W3C//DTD SVG 1.1//EN" "http://www.w3.org/Graphics/SVG/1.1/DTD/svg11.dtd">
<svg version="1.1" id="Layer_1" xmlns="http://www.w3.org/2000/svg" xmlns:xlink="http://www.w3.org/1999/xlink" x="0px" y="0px"
	 width="500px" height="500px" viewBox="0 0 500 500" enable-background="new 0 0 500 500" xml:space="preserve">
<g>
	<g>
		<path d="M188.151,158.562h58.233c14.172,0,32.833,0,42.502,5.837c10.567,6.296,18.878,17.77,18.878,33.509
			c0,17.088-8.978,29.903-23.823,35.974v0.45c19.794,4.046,30.577,18.877,30.577,38.68c0,23.6-16.862,46.084-48.79,46.084h-77.578
			V158.562z M209.503,227.588h42.743c24.267,0,34.176-8.77,34.176-25.632c0-22.267-15.73-25.406-34.176-25.406h-42.743V227.588z
			 M209.503,301.111h53.536c18.42,0,30.128-11.244,30.128-28.781c0-20.91-16.861-26.755-34.864-26.755h-48.799V301.111z"/>
		<path d="M369.132,238.895c0,67.445-54.661,122.12-122.121,122.12c-67.436,0-122.104-54.675-122.104-122.12
			c0-67.435,54.668-122.104,122.104-122.104C314.471,116.791,369.132,171.459,369.132,238.895 M247.012,98.177
			c-77.674,0-140.653,62.963-140.653,140.653c0,77.675,62.979,140.652,140.653,140.652c77.697,0,140.668-62.978,140.668-140.652
			C387.681,161.141,324.709,98.177,247.012,98.177"/>
		<rect x="106.647" y="409.153" width="280.743" height="18.454"/>
		<path d="M378.605,388.839c0.354,0,0.676-0.017,0.979-0.033c0.289-0.016,0.578-0.08,0.82-0.192c0.24-0.12,0.432-0.279,0.57-0.48
			c0.152-0.232,0.201-0.516,0.201-0.917c0-0.321-0.049-0.595-0.186-0.771c-0.12-0.209-0.296-0.346-0.489-0.45
			c-0.21-0.112-0.418-0.184-0.69-0.231c-0.257-0.018-0.513-0.039-0.778-0.039h-2.017v3.115L378.605,388.839L378.605,388.839z
			 M379.281,384.485c1.173,0,2.024,0.233,2.586,0.683c0.561,0.481,0.851,1.173,0.851,2.112c0,0.892-0.257,1.525-0.739,1.951
			c-0.505,0.402-1.107,0.651-1.862,0.729l2.81,4.304h-1.621l-2.683-4.216h-1.606v4.216h-1.54v-9.78L379.281,384.485L379.281,384.485
			z M372.383,392.194c0.328,0.884,0.812,1.646,1.437,2.288c0.609,0.634,1.35,1.148,2.199,1.518c0.836,0.362,1.768,0.53,2.731,0.53
			c0.986,0,1.895-0.169,2.723-0.53c0.835-0.369,1.564-0.882,2.199-1.518c0.603-0.642,1.101-1.404,1.438-2.288
			c0.361-0.859,0.546-1.822,0.546-2.827c0-1.035-0.185-1.952-0.546-2.818c-0.337-0.876-0.835-1.623-1.438-2.265
			c-0.635-0.62-1.364-1.125-2.199-1.493c-0.827-0.354-1.734-0.545-2.723-0.545c-0.965,0-1.896,0.191-2.731,0.545
			c-0.85,0.368-1.589,0.876-2.199,1.493c-0.626,0.642-1.108,1.389-1.437,2.265c-0.362,0.866-0.538,1.782-0.538,2.818
			C371.845,390.372,372.021,391.335,372.383,392.194 M370.994,386.044c0.449-1.012,1.06-1.871,1.815-2.633
			c0.771-0.757,1.67-1.317,2.697-1.76c1.011-0.425,2.12-0.634,3.244-0.634c1.173,0,2.248,0.209,3.291,0.634
			c0.995,0.442,1.879,1.003,2.634,1.76c0.755,0.763,1.381,1.623,1.815,2.633c0.466,1.021,0.675,2.128,0.675,3.325
			c0,1.205-0.209,2.312-0.675,3.316c-0.434,1.043-1.061,1.919-1.815,2.674c-0.755,0.771-1.639,1.341-2.634,1.768
			c-1.043,0.418-2.12,0.627-3.291,0.627c-1.126,0-2.233-0.209-3.244-0.627c-1.027-0.426-1.927-0.996-2.697-1.768
			c-0.756-0.755-1.366-1.629-1.815-2.674c-0.466-1.005-0.659-2.111-0.659-3.316C370.335,388.172,370.528,387.062,370.994,386.044"/>
		<path d="M140.678,36.322c-0.674-1.06-1.501-2-2.489-2.81c-1.003-0.795-2.12-1.43-3.381-1.88c-1.26-0.45-2.578-0.674-3.95-0.674
			c-2.505,0-4.65,0.481-6.399,1.453c-1.751,0.98-3.172,2.272-4.257,3.91c-1.092,1.638-1.895,3.502-2.393,5.589
			c-0.498,2.079-0.739,4.24-0.739,6.464c0,2.136,0.241,4.208,0.739,6.214c0.498,2.024,1.301,3.831,2.393,5.445
			c1.084,1.614,2.505,2.907,4.257,3.878c1.751,0.971,3.895,1.461,6.399,1.461c3.421,0,6.079-1.044,8.006-3.131
			c1.911-2.087,3.083-4.834,3.517-8.247h10.808c-0.289,3.181-1.027,6.039-2.201,8.6c-1.188,2.561-2.763,4.746-4.697,6.543
			c-1.943,1.799-4.216,3.172-6.833,4.128c-2.602,0.939-5.469,1.421-8.6,1.421c-3.886,0-7.379-0.675-10.488-2.031
			c-3.1-1.35-5.725-3.212-7.854-5.581c-2.135-2.369-3.766-5.148-4.906-8.352c-1.14-3.203-1.709-6.648-1.709-10.35
			c0-3.79,0.57-7.316,1.709-10.56c1.14-3.245,2.771-6.079,4.906-8.496c2.128-2.417,4.753-4.312,7.854-5.685
			c3.107-1.374,6.6-2.064,10.488-2.064c2.803,0,5.437,0.411,7.934,1.206c2.48,0.81,4.713,1.982,6.681,3.524
			c1.967,1.542,3.589,3.454,4.873,5.725c1.277,2.272,2.079,4.883,2.409,7.821h-10.808C141.762,38.563,141.336,37.391,140.678,36.322
			"/>
		<path d="M167.739,64.732c1.526,1.461,3.694,2.201,6.537,2.201c2.048,0,3.799-0.506,5.269-1.534
			c1.469-1.012,2.369-2.087,2.706-3.229h8.881c-1.421,4.41-3.598,7.565-6.537,9.46c-2.947,1.887-6.497,2.843-10.672,2.843
			c-2.891,0-5.493-0.467-7.821-1.389c-2.312-0.924-4.288-2.241-5.893-3.943c-1.614-1.71-2.858-3.749-3.742-6.111
			c-0.867-2.369-1.309-4.978-1.309-7.829c0-2.747,0.45-5.308,1.356-7.677c0.893-2.377,2.177-4.425,3.839-6.15
			c1.653-1.727,3.637-3.092,5.934-4.087c2.297-1.003,4.842-1.494,7.637-1.494c3.131,0,5.862,0.61,8.191,1.815
			c2.312,1.204,4.224,2.827,5.717,4.865c1.485,2.048,2.57,4.36,3.229,6.969c0.658,2.609,0.907,5.333,0.714,8.183h-26.523
			C165.395,60.894,166.23,63.263,167.739,64.732 M179.158,45.388c-1.212-1.325-3.052-1.991-5.517-1.991
			c-1.613,0-2.947,0.281-4.023,0.818c-1.06,0.555-1.911,1.221-2.554,2.024c-0.642,0.81-1.091,1.662-1.349,2.561
			c-0.258,0.908-0.418,1.71-0.467,2.425h16.429C181.197,48.657,180.362,46.721,179.158,45.388"/>
		<path d="M205.922,36.789v6.825h0.136c0.482-1.141,1.125-2.192,1.928-3.164c0.802-0.972,1.734-1.799,2.771-2.489
			c1.043-0.682,2.16-1.221,3.349-1.598c1.18-0.377,2.417-0.57,3.694-0.57c0.666,0,1.397,0.121,2.2,0.353v9.388
			c-0.474-0.088-1.043-0.177-1.702-0.249c-0.667-0.072-1.301-0.111-1.928-0.111c-1.847,0-3.405,0.312-4.69,0.931
			c-1.277,0.618-2.312,1.46-3.091,2.521c-0.778,1.068-1.341,2.313-1.67,3.743c-0.33,1.413-0.498,2.956-0.498,4.609v16.573h-10.093
			v-36.76H205.922z"/>
		<path d="M247.027,36.789v6.752h-7.403v18.205c0,1.709,0.29,2.842,0.859,3.404c0.57,0.578,1.703,0.859,3.413,0.859
			c0.562,0,1.108-0.024,1.629-0.072c0.522-0.041,1.02-0.121,1.502-0.209v7.821c-0.852,0.145-1.814,0.232-2.858,0.28
			c-1.027,0.049-2.055,0.072-3.052,0.072c-1.557,0-3.051-0.104-4.449-0.321c-1.397-0.209-2.618-0.627-3.694-1.238
			c-1.059-0.618-1.911-1.502-2.521-2.642c-0.618-1.131-0.915-2.626-0.915-4.465V43.541h-6.119v-6.752h6.119V25.763h10.085v11.025
			H247.027z"/>
		<path d="M252.905,22.776h10.094v8.327h-10.094V22.776L252.905,22.776z M262.999,73.549h-10.094v-36.76h10.094V73.549z"/>
		<path d="M267.006,43.541v-6.752h6.038v-2.852c0-3.26,1.02-5.942,3.061-8.03c2.031-2.079,5.115-3.13,9.241-3.13
			c0.9,0,1.8,0.039,2.706,0.111c0.893,0.072,1.776,0.129,2.627,0.177v7.541c-1.188-0.152-2.418-0.216-3.693-0.216
			c-1.381,0-2.361,0.321-2.956,0.955c-0.593,0.642-0.882,1.726-0.882,3.244v2.201h6.962v6.752h-6.962v30.001h-10.101V43.541H267.006
			z"/>
		<path d="M296.957,22.776h10.102v8.327h-10.102V22.776z M307.052,73.549h-10.103v-36.76h10.103V73.549z"/>
		<path d="M322.975,64.732c1.511,1.461,3.7,2.201,6.536,2.201c2.04,0,3.798-0.506,5.269-1.534c1.469-1.012,2.378-2.087,2.698-3.229
			h8.888c-1.42,4.41-3.604,7.565-6.535,9.46c-2.946,1.887-6.497,2.843-10.673,2.843c-2.89,0-5.5-0.467-7.821-1.389
			c-2.321-0.924-4.287-2.241-5.893-3.943c-1.615-1.71-2.859-3.749-3.741-6.111c-0.869-2.369-1.317-4.978-1.317-7.829
			c0-2.747,0.465-5.308,1.348-7.677c0.916-2.377,2.185-4.425,3.854-6.15c1.655-1.727,3.632-3.092,5.927-4.087
			c2.306-1.003,4.852-1.494,7.645-1.494c3.131,0,5.862,0.61,8.183,1.815c2.323,1.204,4.233,2.827,5.727,4.865
			c1.492,2.048,2.57,4.36,3.229,6.969s0.899,5.333,0.714,8.183h-26.522C320.63,60.894,321.458,63.263,322.975,64.732
			 M334.385,45.388c-1.204-1.325-3.042-1.991-5.508-1.991c-1.613,0-2.946,0.281-4.023,0.818c-1.06,0.555-1.911,1.221-2.553,2.024
			c-0.644,0.81-1.092,1.662-1.351,2.561c-0.264,0.908-0.416,1.71-0.465,2.425h16.422C336.441,48.657,335.599,46.721,334.385,45.388"
			/>
		<path d="M377.659,68.859c-1.188,1.983-2.746,3.421-4.666,4.296c-1.921,0.876-4.087,1.317-6.504,1.317
			c-2.755,0-5.163-0.53-7.251-1.598c-2.087-1.06-3.806-2.513-5.156-4.336c-1.348-1.822-2.377-3.927-3.058-6.296
			c-0.683-2.369-1.027-4.834-1.027-7.395c0-2.465,0.345-4.843,1.027-7.146c0.681-2.296,1.71-4.32,3.058-6.078
			c1.351-1.751,3.052-3.164,5.086-4.233c2.03-1.068,4.408-1.598,7.105-1.598c2.183,0,4.256,0.457,6.223,1.389
			c1.968,0.923,3.525,2.28,4.658,4.087h0.145V22.776h10.093v50.772h-9.594v-4.689H377.659z M377.225,50.688
			c-0.279-1.397-0.771-2.626-1.453-3.702c-0.681-1.06-1.58-1.927-2.673-2.594c-1.085-0.666-2.458-0.995-4.12-0.995
			c-1.654,0-3.06,0.329-4.2,0.995c-1.132,0.667-2.039,1.542-2.731,2.634c-0.69,1.092-1.187,2.336-1.492,3.734
			c-0.313,1.396-0.466,2.851-0.466,4.368c0,1.421,0.169,2.851,0.497,4.272c0.338,1.421,0.868,2.69,1.605,3.798
			c0.731,1.125,1.654,2.024,2.771,2.706c1.117,0.69,2.448,1.028,4.016,1.028c1.662,0,3.042-0.33,4.16-0.996
			c1.115-0.667,1.998-1.55,2.674-2.666c0.658-1.107,1.132-2.377,1.412-3.799c0.289-1.429,0.435-2.898,0.435-4.408
			C377.659,53.547,377.514,52.085,377.225,50.688"/>
		<path d="M131.282,463.838c-0.513-3.557-3.918-6.256-7.821-6.256c-7.059,0-9.717,6.016-9.717,12.271
			c0,5.95,2.658,11.965,9.717,11.965c4.802,0,7.516-3.301,8.111-8.015h7.62c-0.803,8.914-6.962,14.624-15.731,14.624
			c-11.065,0-17.569-8.264-17.569-18.574c0-10.624,6.504-18.879,17.569-18.879c7.869,0,14.469,4.61,15.426,12.864H131.282z"/>
		<path d="M155.606,460.995c8.167,0,13.418,5.396,13.418,13.659c0,8.216-5.251,13.619-13.418,13.619
			c-8.118,0-13.371-5.403-13.371-13.619C142.235,466.392,147.488,460.995,155.606,460.995 M155.606,482.917
			c4.858,0,6.304-4.16,6.304-8.263c0-4.151-1.446-8.302-6.304-8.302c-4.81,0-6.271,4.15-6.271,8.302
			C149.335,478.757,150.796,482.917,155.606,482.917"/>
		<path d="M173.409,461.646h6.753v4.803h0.104c1.293-3.253,4.802-5.501,8.271-5.501c0.489,0,1.092,0.089,1.549,0.24v6.617
			c-0.666-0.152-1.709-0.249-2.553-0.249c-5.212,0-7.026,3.751-7.026,8.304v11.668h-7.098V461.646L173.409,461.646z"/>
		<path d="M192.857,461.686h6.77v3.301h0.097c1.694-2.747,4.504-3.998,7.701-3.998c8.11,0,11.772,6.56,11.772,13.915
			c0,6.914-3.807,13.37-11.37,13.37c-3.1,0-6.055-1.358-7.757-3.903h-0.096v12.317h-7.115V461.686L192.857,461.686z
			 M212.081,474.711c0-4.12-1.654-8.358-6.2-8.358c-4.657,0-6.159,4.15-6.159,8.358c0,4.199,1.598,8.206,6.208,8.206
			C210.588,482.917,212.081,478.91,212.081,474.711"/>
		<path d="M234.79,460.995c8.174,0,13.435,5.396,13.435,13.659c0,8.216-5.261,13.619-13.435,13.619
			c-8.103,0-13.362-5.403-13.362-13.619C221.428,466.392,226.688,460.995,234.79,460.995 M234.79,482.917
			c4.866,0,6.312-4.16,6.312-8.263c0-4.151-1.446-8.302-6.312-8.302c-4.786,0-6.247,4.15-6.247,8.302
			C228.542,478.757,230.004,482.917,234.79,482.917"/>
		<path d="M252.608,461.646h6.76v4.803h0.106c1.291-3.253,4.801-5.501,8.254-5.501c0.498,0,1.108,0.089,1.558,0.24v6.617
			c-0.658-0.152-1.709-0.249-2.554-0.249c-5.21,0-7.019,3.751-7.019,8.304v11.668h-7.105V461.646L252.608,461.646z"/>
		<path d="M271.374,469.651c0.402-6.665,6.36-8.656,12.166-8.656c5.155,0,11.369,1.14,11.369,7.348v13.475
			c0,2.353,0.249,4.696,0.907,5.758h-7.218c-0.249-0.812-0.459-1.654-0.507-2.506c-2.248,2.353-5.548,3.204-8.704,3.204
			c-4.915,0-8.816-2.449-8.816-7.766c0-5.854,4.425-7.251,8.816-7.854c4.352-0.657,8.415-0.505,8.415-3.404
			c0-3.051-2.119-3.509-4.607-3.509c-2.716,0-4.458,1.101-4.707,3.91H271.374L271.374,469.651z M287.803,474.903
			c-1.205,1.052-3.708,1.101-5.909,1.51c-2.21,0.434-4.208,1.195-4.208,3.798c0,2.659,2.055,3.301,4.361,3.301
			c5.547,0,5.756-4.401,5.756-5.95V474.903z"/>
		<path d="M309.268,461.686h5.212v4.763h-5.212v12.8c0,2.418,0.603,3.021,3.003,3.021c0.755,0,1.453-0.057,2.209-0.201v5.564
			c-1.205,0.201-2.764,0.241-4.16,0.241c-4.344,0-8.158-1.004-8.158-6.159v-15.266h-4.304v-4.763h4.304v-7.765h7.106V461.686z"/>
		<path d="M326.949,457.679h-7.106v-5.862h7.106V457.679z M319.843,461.686h7.106v25.89h-7.106V461.686z"/>
		<path d="M345.089,460.995c8.159,0,13.427,5.396,13.427,13.659c0,8.216-5.268,13.619-13.427,13.619
			c-8.109,0-13.36-5.403-13.36-13.619C331.729,466.392,336.979,460.995,345.089,460.995 M345.089,482.917
			c4.866,0,6.312-4.16,6.312-8.263c0-4.151-1.446-8.302-6.312-8.302c-4.802,0-6.264,4.15-6.264,8.302
			C338.825,478.757,340.287,482.917,345.089,482.917"/>
		<path d="M363.108,461.686h6.76v3.606h0.153c1.808-2.908,4.905-4.304,7.909-4.304c7.564,0,9.459,4.255,9.459,10.663v15.924h-7.105
			v-14.624c0-4.255-1.253-6.366-4.553-6.366c-3.863,0-5.508,2.159-5.508,7.419v13.571h-7.115V461.686L363.108,461.686z"/>
	</g>
</g>
</svg>
